<?xml version="1.0" standalone="no"?>
<!DOCTYPE svg PUBLIC "-//W3C//DTD SVG 20010904//EN"
 "http://www.w3.org/TR/2001/REC-SVG-20010904/DTD/svg10.dtd">
<svg version="1.0" xmlns="http://www.w3.org/2000/svg"
 width="200.000000pt" height="200.000000pt" viewBox="0 0 200.000000 200.000000"
 preserveAspectRatio="xMidYMid meet">
<metadata>
Created by potrace 1.16, written by Peter Selinger 2001-2019
</metadata>
<g transform="translate(0.000000,200.000000) scale(0.100000,-0.100000)"
fill="#000000" stroke="none">
<path d="M885 1940 c-400 -56 -711 -337 -807 -727 -30 -124 -30 -313 1 -438
41 -171 151 -359 276 -473 204 -187 454 -272 736 -250 447 34 822 408 857 856
22 282 -62 532 -250 737 -113 124 -303 236 -468 275 -99 23 -259 33 -345 20z
m300 -177 c247 -56 462 -243 554 -482 38 -99 51 -173 51 -290 0 -432 -349
-781 -781 -781 -117 0 -191 13 -290 51 -191 73 -347 221 -433 411 -50 110 -70
204 -69 333 1 137 25 232 90 358 38 75 64 109 143 187 77 78 112 105 185 142
184 94 353 116 550 71z"/>
<path d="M861 1759 c-73 -14 -141 -39 -226 -82 -112 -58 -254 -199 -312 -312
-63 -123 -84 -202 -90 -335 -10 -232 58 -409 222 -576 224 -227 536 -293 837
-177 191 75 356 240 431 431 116 301 50 613 -177 837 -116 114 -234 179 -384
210 -73 16 -231 18 -301 4z m-315 -543 l31 -79 31 79 30 79 76 3 c42 2 76 1
76 -1 0 -2 -29 -65 -65 -139 -36 -75 -65 -142 -65 -149 0 -8 32 -79 70 -158
39 -78 70 -147 70 -152 0 -5 -33 -9 -74 -9 l-73 0 -39 92 -38 91 -14 -34 c-7
-19 -25 -60 -39 -91 l-26 -58 -73 0 c-41 0 -74 2 -74 5 0 2 33 73 73 158 l74
154 -59 124 c-91 190 -91 170 -1 167 l77 -3 32 -79z m613 47 c46 -177 143
-542 147 -556 5 -16 -1 -18 -67 -15 l-73 3 -11 45 -11 45 -75 3 -76 3 -9 -48
-9 -48 -73 -3 c-67 -3 -73 -1 -68 15 9 28 156 584 156 589 0 2 36 4 80 4 l79
0 10 -37z m501 -28 l0 -65 -70 0 -70 0 0 -55 0 -55 60 0 60 0 0 -65 0 -65 -60
0 -60 0 0 -120 0 -120 -70 0 -70 0 0 305 0 305 140 0 140 0 0 -65z"/>
</g>
</svg>
